# Blender v2.74 (sub 0) OBJ File: ''
# www.blender.org
v 1.000000 -1.000000 -1.000000
v 1.000000 -1.000000 1.000000
v -1.000000 -1.000000 1.000000
v -1.000000 -1.000000 -1.000000
v 1.000000 1.000000 -0.999999
v 0.999999 1.000000 1.000001
v -1.000000 1.000000 1.000000
v -1.000000 1.000000 -1.000000
vt 0.000000 -1.000000
vt -1.000000 -1.000000
vt -1.000000 0.000000
vt -1.000000 1.000000
vt -0.000000 -0.000000
vt -0.000000 1.000000
vt 0.000100 0.999900
vt 0.000100 0.000100
vt 0.999900 0.000100
vt 0.999900 0.999900
vn 0.000000 -1.000000 0.000000
vn 0.000000 1.000000 0.000000
vn 1.000000 0.000000 0.000000
vn -0.000000 0.000000 1.000000
vn -1.000000 -0.000000 -0.000000
vn 0.000000 0.000000 -1.000000
s off
f 2/1/1 3/2/1 4/3/1
f 8/4/2 7/3/2 6/5/2
f 5/6/3 6/4/3 2/3/3
f 6/6/4 7/4/4 3/3/4
f 3/7/5 7/8/5 8/9/5
f 1/1/6 4/2/6 8/3/6
f 1/5/1 2/1/1 4/3/1
f 5/6/2 8/4/2 6/5/2
f 1/5/3 5/6/3 2/3/3
f 2/5/4 6/6/4 3/3/4
f 4/10/5 3/7/5 8/9/5
f 5/5/6 1/1/6 8/3/6
